<?xml version="1.0" standalone="no"?>
<!DOCTYPE svg PUBLIC "-//W3C//DTD SVG 20010904//EN"
 "http://www.w3.org/TR/2001/REC-SVG-20010904/DTD/svg10.dtd">
<svg version="1.0" xmlns="http://www.w3.org/2000/svg"
 width="612.000000pt" height="612.000000pt" viewBox="0 0 612.000000 612.000000"
 preserveAspectRatio="xMidYMid meet">
<metadata>
Created by potrace 1.14, written by Peter Selinger 2001-2017
</metadata>
<g transform="translate(0.000000,612.000000) scale(0.100000,-0.100000)"
fill="#000000" stroke="none">
<path d="M2828 4691 c-151 -164 -182 -295 -92 -399 32 -38 55 -51 246 -142
103 -48 192 -125 228 -196 32 -63 33 -148 2 -217 l-21 -48 45 33 c25 18 65 53
89 79 149 159 102 308 -131 415 -251 115 -323 163 -363 247 -39 81 -24 178 41
260 47 58 26 43 -44 -32z"/>
<path d="M2564 4208 c-64 -76 -68 -149 -11 -192 18 -13 60 -36 95 -51 103 -46
164 -136 132 -195 -22 -41 2 -35 45 12 87 96 61 156 -102 229 -122 55 -174
129 -140 198 20 39 15 39 -19 -1z"/>
<path d="M1937 3588 c-43 -33 -41 -73 19 -381 73 -380 197 -739 311 -905 48
-70 131 -149 176 -168 23 -9 51 -31 62 -48 l20 -31 469 -3 469 -2 24 22 c13
12 23 26 23 32 0 6 20 19 44 29 73 30 142 104 229 248 l15 26 124 -19 c101
-15 136 -17 198 -8 242 34 420 236 420 477 0 230 -176 437 -404 475 -53 9 -65
14 -62 27 3 9 10 49 16 89 13 80 4 124 -31 142 -11 6 -293 10 -728 10 l-711 0
0 -235 0 -235 38 0 c34 0 46 -8 115 -78 l77 -77 0 -240 0 -240 -240 3 -240 3
0 237 0 237 78 78 c69 68 82 77 115 77 l37 0 0 235 0 235 -323 0 c-243 0 -327
-3 -340 -12z m2270 -439 c71 -34 116 -81 152 -159 34 -73 36 -191 4 -262 -31
-68 -99 -137 -168 -169 -50 -24 -73 -29 -136 -29 -69 0 -176 14 -187 24 -2 3
19 73 46 158 28 84 67 227 89 316 l38 164 50 -6 c28 -4 78 -20 112 -37z"/>
<path d="M1945 1968 c-28 -16 -35 -28 -35 -64 0 -19 8 -38 21 -50 19 -17 41
-19 207 -22 183 -4 186 -4 204 -28 l20 -24 646 2 647 3 9 21 c9 21 17 22 195
26 123 2 194 8 208 16 47 26 38 103 -13 122 -38 15 -2083 13 -2109 -2z"/>
<path d="M2920 1203 c-47 -2 -89 -8 -93 -12 -14 -14 212 -24 350 -16 69 4 120
11 112 15 -18 10 -257 18 -369 13z"/>
</g>
</svg>
